<svg xmlns="http://www.w3.org/2000/svg" xmlns:xlink="http://www.w3.org/1999/xlink" viewBox="0 0 215.43 226.63"><defs><style>.cls-1{fill:url(#linear-gradient);}.cls-2{fill:url(#linear-gradient-2);}.cls-3,.cls-4,.cls-5,.cls-6{fill:none;}.cls-10,.cls-3,.cls-4,.cls-5{stroke:#ff0060;}.cls-10,.cls-3,.cls-4,.cls-5,.cls-6{stroke-miterlimit:10;}.cls-10,.cls-4{stroke-width:3px;}.cls-5{stroke-width:2px;}.cls-6{stroke:#ed3c5f;}.cls-7{fill:url(#linear-gradient-3);}.cls-8{fill:#ff0060;}.cls-9{fill:url(#linear-gradient-4);}.cls-10{fill:url(#linear-gradient-5);}.cls-11{fill:#fff;}</style><linearGradient id="linear-gradient" x1="38.55" y1="108.91" x2="38.58" y2="108.91" gradientUnits="userSpaceOnUse"><stop offset="0" stop-color="#fff"/><stop offset="1"/></linearGradient><linearGradient id="linear-gradient-2" x1="37.91" y1="108.64" x2="38.11" y2="108.64" xlink:href="#linear-gradient"/><linearGradient id="linear-gradient-3" x1="112.93" y1="61.37" x2="114.27" y2="61.37" xlink:href="#linear-gradient"/><linearGradient id="linear-gradient-4" x1="113.95" y1="63.72" x2="115.81" y2="63.72" xlink:href="#linear-gradient"/><linearGradient id="linear-gradient-5" x1="35.52" y1="142.37" x2="44.77" y2="142.37" xlink:href="#linear-gradient"/></defs><title>Asset 1</title><g id="Layer_2" data-name="Layer 2"><g id="Layer_1-2" data-name="Layer 1"><path class="cls-1" d="M38.55,108.9Z"/><path class="cls-2" d="M38.11,108.69l-.2-.1Z"/><path class="cls-3" d="M116,60.7h2c-3.2,4-3.63,9.21-3.6,12,0,.82.06,1.43.09,1.75"/><line class="cls-3" x1="118.11" y1="101.99" x2="118.39" y2="101.04"/><line class="cls-3" x1="106.55" y1="141.35" x2="106.58" y2="141.26"/><line class="cls-3" x1="94.84" y1="181.2" x2="95.21" y2="179.97"/><line class="cls-3" x1="81.73" y1="225.85" x2="94.82" y2="181.29"/><line class="cls-4" x1="16.21" y1="139.63" x2="15.84" y2="140.2"/><polyline class="cls-4" points="50.45 85.92 38.61 104.49 36.45 107.87 30.13 117.78 25.8 124.57 17.86 137.03 17.78 137.16 17.16 138.13"/><line class="cls-5" x1="60.9" y1="69.53" x2="50.45" y2="85.92"/><line class="cls-4" x1="62.06" y1="67.72" x2="60.9" y2="69.53"/><polyline class="cls-4" points="104.72 0.8 104.27 1.51 102.96 3.57 66.53 60.7 62.06 67.71"/><polyline class="cls-3" points="26.32 226.38 26.9 225.33 64.83 157.02 66.65 153.74"/><path class="cls-5" d="M17.16,138.13l-.95,1.5c-22.1,35.3-12.55,43.51.24,43.86a52.1,52.1,0,0,0,13.09-1.61h0"/><path class="cls-5" d="M96.05,178.33c-.17-.17-.27-.24-.3-.2v0c.09,1.07,16.45,23.52,24.94,15,4.7-4.68,7-18.85,2.76-51.35l0-.39-.06-.42L122,130.88l-.37-2.83L118.11,102l-.12-.93-3.45-25.81-.07-.52,0-.25-.23-1.67-.93-6.94-.69-5.17,0-.16L104.72,1.8"/><line class="cls-3" x1="118.39" y1="101.04" x2="117.99" y2="101.06"/><path class="cls-3" d="M104.58,141.26l-5.78,0"/><path class="cls-3" d="M61.25,65.85q.36.87.81,1.86h0a131.84,131.84,0,0,0,9.17,14.8c2.21,3.11,4.51,6,6.87,8.84.58.71,1.18,1.41,1.78,2.09a173.06,173.06,0,0,0,30.74,27.23c.56.4,1.11.79,1.66,1.16,2.51,1.75,4.91,3.34,7.13,4.79l2.19,1.42c8.15,5.24,13.54,8.44,13.48,10.38-.05,1.54-3.51,2.27-11.75,2.6-.64,0-1.3.05-2,.06-3.94.13-8.82.17-14.76.17"/><path class="cls-3" d="M65.6,60.7l-.69-.6c-1.34-1.1-4.25-3.29-5.25-2.16-.67.73-.48,2.93,1.59,7.9"/><path class="cls-5" d="M63.6,60.7H116a15.2,15.2,0,0,0-2.67,5.17,23.46,23.46,0,0,0-.89,7.94c0,.29,0,.51,0,.67"/><polyline class="cls-3" points="64.39 155 64.83 157.02 79.81 225.59 79.98 226.38"/><polyline class="cls-3" points="116.11 101.99 116.37 101.12 116.39 101.04"/><polyline class="cls-3" points="79.73 225.85 79.81 225.59 80.9 221.87 93.72 178.23 104.56 141.33 104.56 141.32 104.58 141.26"/><line class="cls-4" x1="14.21" y1="139.63" x2="13.84" y2="140.2"/><polyline class="cls-4" points="48.15 86.39 38.74 101.15 34.96 107.08 26.53 120.3 21.14 128.74 17.61 134.29 16.51 136.02 15.16 138.13"/><line class="cls-5" x1="60.06" y1="67.72" x2="48.15" y2="86.39"/><line class="cls-4" x1="61.25" y1="65.85" x2="60.06" y2="67.71"/><line class="cls-3" x1="61.25" y1="65.84" x2="61.25" y2="65.85"/><polyline class="cls-4" points="102.72 0.8 102.27 1.51 64.91 60.1 64.53 60.7 61.25 65.84"/><polyline class="cls-3" points="34.32 141.04 34.14 142.63 29.6 181.37 29.54 181.88 24.32 226.38"/><line class="cls-3" x1="38.98" y1="101.3" x2="38.61" y2="104.49"/><polyline class="cls-3" points="24.32 226.38 27.44 220.76 64.05 154.81 64.65 153.74"/><path class="cls-5" d="M15.16,138.13l-.95,1.5C-9,176.75,2.73,183.92,16.45,183.49a60.77,60.77,0,0,0,13.15-2.12"/><path class="cls-5" d="M102.72,1.8,103,3.57l7.63,57.13,1.76,13.13.09.65,0,.25.15,1.09.06.48,1.62,12.12,1.7,12.71.11.86.63,4.67h0l2.67,20,.4,3,1.53,11.44,0,.37,0,.38c4.07,30.42,2.84,45.27-.76,51.35-6.61,11.2-21.25-7.42-25.47-13.22"/><path class="cls-5" d="M63.6,60.7a18.57,18.57,0,0,0-3.94-2.76c-2.32-1-4,0,.4,9.77h0c.27.61.55,1.21.84,1.81A117.15,117.15,0,0,0,75.34,92.75c.56.72,1.14,1.44,1.73,2.14a145.84,145.84,0,0,0,32.72,28.63c.57.37,1.12.73,1.68,1.08,2.94,1.88,5.75,3.56,8.34,5.05l2.16,1.23c6.29,3.55,11.06,6,13.11,7.55,3,2.3.25,2.95-11.69,3h-2c-4,0-8.92,0-14.84-.1l-2,0"/><line class="cls-5" x1="104.56" y1="141.32" x2="98.8" y2="141.25"/><path class="cls-3" d="M113.58,88.52a10.51,10.51,0,0,1,.13,1.69"/><path class="cls-3" d="M39.8,101.13a.23.23,0,0,1,.25-.24"/><line class="cls-5" x1="94.82" y1="181.29" x2="94.84" y2="181.2"/><polyline class="cls-3" points="95.21 179.97 95.74 178.15 95.75 178.13 106.55 141.36 106.55 141.35"/><polyline class="cls-6" points="66.65 153.74 80.9 221.87 81.73 225.85"/><polyline class="cls-3" points="36.77 141.2 36.58 142.8 32.14 180.66 32.07 181.25 27.44 220.76 26.9 225.33"/><path class="cls-5" d="M36.68,142.81h-.1c-.85,0-1.66-.1-2.44-.17C24.53,141.85,19.52,140,18,137.3a1.66,1.66,0,0,1-.13-.27,4,4,0,0,1-.25-2.74,13,13,0,0,1,3.53-5.55,48.18,48.18,0,0,1,4.66-4.17,125.08,125.08,0,0,1,11.37-7.83c11.13-6.95,25.64-14.54,39.9-21.85l2.81-1.44,12-6.15c5.09-2.62,10-5.15,14.44-7.55,2.22-1.18,4.34-2.34,6.34-3.45l1.86-1C127,68.19,133.93,62.84,129.2,60.84c-2.36-1-7.65-1.17-16.63-.3L111,60.7"/><path class="cls-3" d="M115.8,61.38c-.65,1.37-1.29,2.75-1.94,4.12"/><path class="cls-3" d="M37.18,141.22l-.41,0c-.85,0-1.66-.1-2.45-.16q-3-.21-5.5-.55c-5.18-.7-8.71-1.79-10.83-3.19l-.21-.14A6.49,6.49,0,0,1,16.51,136c-3.23-3.8,1.26-9.34,10-15.72q1.7-1.23,3.6-2.52c2.29-1.54,4.8-3.12,7.47-4.73C48.43,106.51,62,99.49,75.34,92.75l2.76-1.39c5.35-2.69,10.64-5.33,15.67-7.87q4.45-2.25,8.59-4.38l2.42-1.25c2.68-1.4,5.22-2.74,7.57-4l0,0,1.82-1,.14-.08c9.75-5.44,15.81-9.69,14.85-11.89-.72-1.63-5.34-2.13-15.25-1.14"/><path class="cls-7" d="M114.27,61.37h-1.34"/><path class="cls-8" d="M114.27,59.87h-1.34a1.5,1.5,0,0,0,0,3h1.34a1.5,1.5,0,0,0,0-3Z"/><path class="cls-9" d="M115.81,61.74A7.71,7.71,0,0,0,114,65.69"/><path class="cls-8" d="M114.75,60.68a9.6,9.6,0,0,0-2.25,4.61,1.56,1.56,0,0,0,1,1.85,1.52,1.52,0,0,0,1.85-1,6.61,6.61,0,0,1,1.47-3.29c1.25-1.45-.86-3.59-2.12-2.12Z"/><line class="cls-10" x1="35.52" y1="142.37" x2="44.77" y2="142.37"/><path class="cls-11" d="M213.25,102.69l-.2-.1Z"/><path class="cls-11" d="M213.69,102.9Z"/><path class="cls-3" d="M215.19,94.89a.23.23,0,0,0-.25.24"/></g></g></svg>