<svg xmlns="http://www.w3.org/2000/svg" xmlns:xlink="http://www.w3.org/1999/xlink" viewBox="0 0 137.18 227.33"><defs><style>.cls-1{fill:url(#linear-gradient);}.cls-2{fill:url(#linear-gradient-2);}.cls-3,.cls-4,.cls-5{fill:none;}.cls-11,.cls-3,.cls-4,.cls-5{stroke:#a2fbff;stroke-miterlimit:10;}.cls-11,.cls-4{stroke-width:3px;}.cls-5{stroke-width:2px;}.cls-6{fill:url(#linear-gradient-3);}.cls-7{fill:#ff0060;}.cls-8{fill:url(#linear-gradient-4);}.cls-9{fill:#a2fbff;}.cls-10{fill:url(#linear-gradient-5);}.cls-11{fill:url(#linear-gradient-6);}</style><linearGradient id="linear-gradient" x1="38.55" y1="109.61" x2="38.58" y2="109.61" gradientUnits="userSpaceOnUse"><stop offset="0" stop-color="#fff"/><stop offset="1"/></linearGradient><linearGradient id="linear-gradient-2" x1="37.91" y1="109.34" x2="38.11" y2="109.34" xlink:href="#linear-gradient"/><linearGradient id="linear-gradient-3" x1="102.64" y1="1.7" x2="102.64" y2="1.7" xlink:href="#linear-gradient"/><linearGradient id="linear-gradient-4" x1="112.93" y1="62.07" x2="114.27" y2="62.07" xlink:href="#linear-gradient"/><linearGradient id="linear-gradient-5" x1="113.95" y1="64.42" x2="115.81" y2="64.42" xlink:href="#linear-gradient"/><linearGradient id="linear-gradient-6" x1="35.52" y1="143.07" x2="44.77" y2="143.07" xlink:href="#linear-gradient"/></defs><title>Asset 2</title><g id="Layer_2" data-name="Layer 2"><g id="Layer_1-2" data-name="Layer 1"><path class="cls-1" d="M38.55,109.6Z"/><path class="cls-2" d="M38.11,109.39l-.2-.1Z"/><path class="cls-3" d="M116,61.4h2c-3.2,4-3.63,9.21-3.6,12,0,.82.06,1.43.09,1.75"/><line class="cls-3" x1="118.11" y1="102.69" x2="118.39" y2="101.74"/><line class="cls-3" x1="106.55" y1="142.05" x2="106.58" y2="141.96"/><line class="cls-3" x1="94.84" y1="181.9" x2="95.21" y2="180.67"/><line class="cls-3" x1="81.73" y1="226.55" x2="94.82" y2="181.99"/><line class="cls-4" x1="16.21" y1="140.33" x2="15.84" y2="140.9"/><polyline class="cls-4" points="50.45 86.62 38.61 105.19 36.45 108.57 30.13 118.48 25.8 125.27 17.86 137.73 17.78 137.86 17.16 138.83"/><line class="cls-5" x1="60.9" y1="70.23" x2="50.45" y2="86.62"/><line class="cls-4" x1="62.06" y1="68.42" x2="60.9" y2="70.23"/><polyline class="cls-4" points="104.72 1.5 104.27 2.21 102.96 4.27 66.53 61.4 62.06 68.41"/><polyline class="cls-3" points="26.32 227.08 26.9 226.03 64.83 157.72 66.65 154.44"/><path class="cls-5" d="M17.16,138.83l-.95,1.5c-22.1,35.3-12.55,43.51.24,43.86a52.1,52.1,0,0,0,13.09-1.61h0"/><path class="cls-5" d="M96.05,179c-.17-.17-.27-.24-.3-.2v0c.09,1.07,16.45,23.52,24.94,15,4.7-4.68,7-18.85,2.76-51.35l0-.39-.06-.42L122,131.58l-.37-2.83-3.49-26.06-.12-.93L114.54,76l-.07-.52,0-.25-.23-1.67-.93-6.94-.69-5.17,0-.16L104.72,2.5"/><line class="cls-3" x1="118.39" y1="101.74" x2="117.99" y2="101.76"/><path class="cls-3" d="M104.58,142l-5.78,0"/><path class="cls-3" d="M61.25,66.55q.36.87.81,1.86h0a131.84,131.84,0,0,0,9.17,14.8c2.21,3.11,4.51,6,6.87,8.84.58.71,1.18,1.41,1.78,2.09a173.06,173.06,0,0,0,30.74,27.23c.56.4,1.11.79,1.66,1.16,2.51,1.75,4.91,3.34,7.13,4.79l2.19,1.42c8.15,5.24,13.54,8.44,13.48,10.38-.05,1.54-3.51,2.27-11.75,2.6-.64,0-1.3.05-2,.06-3.94.13-8.82.17-14.76.17"/><path class="cls-3" d="M65.6,61.4l-.69-.6c-1.34-1.1-4.25-3.29-5.25-2.16-.67.73-.48,2.93,1.59,7.9"/><path class="cls-5" d="M63.6,61.4H116a15.2,15.2,0,0,0-2.67,5.17,23.46,23.46,0,0,0-.89,7.94c0,.29,0,.51,0,.67"/><polyline class="cls-3" points="64.39 155.7 64.83 157.72 79.81 226.29 79.98 227.08"/><polyline class="cls-3" points="116.11 102.69 116.37 101.82 116.39 101.74"/><polyline class="cls-3" points="79.73 226.55 79.81 226.29 80.9 222.57 93.72 178.93 104.56 142.03 104.56 142.02 104.58 141.96"/><line class="cls-4" x1="14.21" y1="140.33" x2="13.84" y2="140.9"/><polyline class="cls-4" points="48.15 87.09 38.74 101.85 34.96 107.78 26.53 121 21.14 129.44 17.61 134.99 16.51 136.72 15.16 138.83"/><line class="cls-5" x1="60.06" y1="68.42" x2="48.15" y2="87.09"/><line class="cls-4" x1="61.25" y1="66.55" x2="60.06" y2="68.41"/><line class="cls-3" x1="61.25" y1="66.54" x2="61.25" y2="66.55"/><polyline class="cls-4" points="102.72 1.5 102.27 2.21 64.91 60.8 64.53 61.4 61.25 66.54"/><polyline class="cls-3" points="34.32 141.74 34.14 143.33 29.6 182.07 29.54 182.58 24.32 227.08"/><line class="cls-3" x1="38.98" y1="102" x2="38.61" y2="105.19"/><polyline class="cls-3" points="24.32 227.08 27.44 221.46 64.05 155.51 64.65 154.44"/><path class="cls-5" d="M15.16,138.83l-.95,1.5C-9,177.45,2.73,184.62,16.45,184.19a60.77,60.77,0,0,0,13.15-2.12"/><path class="cls-5" d="M102.72,2.5,103,4.27l7.63,57.13,1.76,13.13.09.65,0,.25.15,1.09.06.48,1.62,12.12,1.7,12.71.11.86.63,4.67h0l2.67,20,.4,3,1.53,11.44,0,.37,0,.38c4.07,30.42,2.84,45.27-.76,51.35-6.61,11.2-21.25-7.42-25.47-13.22"/><path class="cls-5" d="M63.6,61.4a18.57,18.57,0,0,0-3.94-2.76c-2.32-1-4,0,.4,9.77h0c.27.61.55,1.21.84,1.81A117.15,117.15,0,0,0,75.34,93.45c.56.72,1.14,1.44,1.73,2.14a145.84,145.84,0,0,0,32.72,28.63c.57.37,1.12.73,1.68,1.08,2.94,1.88,5.75,3.56,8.34,5l2.16,1.23c6.29,3.55,11.06,5.95,13.11,7.55,3,2.3.25,3-11.69,3h-2c-4,0-8.92,0-14.84-.1l-2,0"/><line class="cls-5" x1="104.56" y1="142.02" x2="98.8" y2="141.95"/><path class="cls-3" d="M113.58,89.22a10.51,10.51,0,0,1,.13,1.69"/><path class="cls-3" d="M39.8,101.83a.23.23,0,0,1,.25-.24"/><line class="cls-5" x1="94.82" y1="181.99" x2="94.84" y2="181.9"/><polyline class="cls-3" points="95.21 180.67 95.74 178.85 95.75 178.83 106.55 142.06 106.55 142.05"/><polyline class="cls-3" points="66.65 154.44 80.9 222.57 81.73 226.55"/><polyline class="cls-3" points="36.77 141.9 36.58 143.5 32.14 181.36 32.07 181.95 27.44 221.46 26.9 226.03"/><path class="cls-5" d="M36.68,143.51h-.1c-.85,0-1.66-.1-2.44-.17-9.61-.78-14.62-2.65-16.15-5.33a1.66,1.66,0,0,1-.13-.27,4,4,0,0,1-.25-2.74,13,13,0,0,1,3.53-5.55,48.18,48.18,0,0,1,4.66-4.17,125.08,125.08,0,0,1,11.37-7.83c11.13-7,25.64-14.54,39.9-21.85l2.81-1.44L91.9,88c5.09-2.62,10-5.15,14.44-7.55,2.22-1.18,4.34-2.34,6.34-3.45l1.86-1C127,68.89,133.93,63.54,129.2,61.54c-2.36-1-7.65-1.17-16.63-.3L111,61.4"/><path class="cls-3" d="M115.8,62.08c-.65,1.37-1.29,2.75-1.94,4.12"/><path class="cls-3" d="M37.18,141.92l-.41,0c-.85,0-1.66-.1-2.45-.16q-3-.21-5.5-.55c-5.18-.7-8.71-1.79-10.83-3.19l-.21-.14a6.49,6.49,0,0,1-1.27-1.14c-3.23-3.8,1.26-9.34,10-15.72q1.7-1.23,3.6-2.52c2.29-1.54,4.8-3.12,7.47-4.73,10.83-6.54,24.39-13.56,37.74-20.3l2.76-1.39c5.35-2.69,10.64-5.33,15.67-7.87q4.45-2.25,8.59-4.38l2.42-1.25c2.68-1.4,5.22-2.74,7.57-4l0,0,1.82-1,.14-.08c9.75-5.44,15.81-9.69,14.85-11.89-.72-1.63-5.34-2.13-15.25-1.14"/><path class="cls-6" d="M102.64,1.7"/><path class="cls-7" d="M102.64,3.2a1.5,1.5,0,0,0,0-3,1.5,1.5,0,0,0,0,3Z"/><path class="cls-7" d="M102.73,3a1.5,1.5,0,0,0,0-3,1.5,1.5,0,0,0,0,3Z"/><path class="cls-8" d="M114.27,62.07h-1.34"/><path class="cls-9" d="M114.27,60.57h-1.34a1.5,1.5,0,0,0,0,3h1.34a1.5,1.5,0,0,0,0-3Z"/><path class="cls-10" d="M115.81,62.44a7.71,7.71,0,0,0-1.86,4"/><path class="cls-9" d="M114.75,61.38A9.56,9.56,0,0,0,112.5,66a1.56,1.56,0,0,0,1,1.85,1.52,1.52,0,0,0,1.85-1,6.57,6.57,0,0,1,1.47-3.29c1.25-1.46-.86-3.59-2.12-2.12Z"/><line class="cls-11" x1="35.52" y1="143.07" x2="44.77" y2="143.07"/></g></g></svg>