<svg width="84px" height="11px" viewBox="0 0 84 11" version="1.1" xmlns="http://www.w3.org/2000/svg" xmlns:xlink="http://www.w3.org/1999/xlink">
    <!-- Generator: Sketch 48.2 (47327) - http://www.bohemiancoding.com/sketch -->
    <desc>Created with Sketch.</desc>
    <defs></defs>
    <g id="Page-1" stroke="none" stroke-width="1" fill="none" fill-rule="evenodd">
        <g id="Custom-Preset-3" transform="translate(0.000000, -2.000000)" fill="red">
            <path d="M4.78564453,4.77587891 C4.62451091,5.59586999 4.52783219,6.14729676 4.49560547,6.43017578 L4.32910156,7.91796875 L7.32617188,7.91796875 L7.34765625,7.72460938 C7.58040481,5.64419533 7.99218455,4.22982145 8.58300781,3.48144531 C9.30631872,2.56477406 10.108394,2.10644531 10.9892578,2.10644531 C11.3186865,2.10644531 11.6248358,2.16373641 11.9077148,2.27832031 L11.112793,3.05712891 C10.8120102,2.85302632 10.5130223,2.75097656 10.2158203,2.75097656 C9.61067406,2.75097656 9.18994259,3.05085963 8.95361328,3.65063477 C8.71728397,4.2504099 8.48274856,5.60838786 8.25,7.72460938 L8.16943359,8.45507812 C8.06917268,9.3968146 8.01904297,10.1254857 8.01904297,10.6411133 C8.01904297,10.9454768 8.14973828,11.0976562 8.41113281,11.0976562 C8.60449315,11.0976562 8.84439961,11.0153003 9.13085938,10.8505859 C9.14518236,10.9150394 9.15234375,10.9597981 9.15234375,10.9848633 C9.15234375,11.0922857 9.05745538,11.1889644 8.86767578,11.2749023 L8.55615234,11.4199219 L6.97705078,12.1396484 C6.97705078,11.4772102 7.06298742,10.3510822 7.23486328,8.76123047 L7.25634766,8.56787109 L4.25927734,8.56787109 L4.20556641,9.05664062 L4.13574219,9.65283203 C4.07486949,10.1612981 3.96476317,10.5283192 3.80541992,10.7539062 C3.64607668,10.9794933 3.34082257,11.199706 2.88964844,11.4145508 L4.15722656,11.4951172 L3.51269531,12.1181641 L1.18701172,12 L1.87451172,11.3339844 L2.45996094,11.3984375 C2.74283996,11.2158194 2.93798774,10.9875502 3.04541016,10.713623 C3.15283257,10.4396959 3.2459306,9.93034227 3.32470703,9.18554688 L3.73828125,5.42578125 L3.57177734,5.42578125 C2.08218656,5.42578125 1.33740234,5.91812659 1.33740234,6.90283203 C1.33740234,7.21077628 1.42154864,7.52050625 1.58984375,7.83203125 L0.714355469,8.66992188 C0.631998286,8.3906236 0.590820312,8.11311987 0.590820312,7.83740234 C0.590820312,6.9135696 0.934566875,6.17236607 1.62207031,5.61376953 C2.30957375,5.05517299 3.22265056,4.77587891 4.36132812,4.77587891 L4.78564453,4.77587891 Z M12.5146484,12.2202148 C11.812822,12.2202148 11.2390159,11.9436063 10.7932129,11.3903809 C10.3474099,10.8371554 10.1245117,10.1254926 10.1245117,9.25537109 C10.1245117,7.99136738 10.5515094,6.89298969 11.4055176,5.96020508 C12.2595258,5.02742047 13.2665958,4.56103516 14.4267578,4.56103516 C15.146488,4.56103516 15.730141,4.83406302 16.1777344,5.38012695 C16.6253278,5.92619088 16.8491211,6.63964403 16.8491211,7.52050781 C16.8491211,8.79525377 16.4203331,9.89721215 15.5627441,10.826416 C14.7051552,11.7556199 13.6891335,12.2202148 12.5146484,12.2202148 Z M13.2182617,11.7851562 C13.9594764,11.7851562 14.5798315,11.4288773 15.0793457,10.7163086 C15.5788599,10.0037399 15.8286133,9.11930867 15.8286133,8.06298828 C15.8286133,7.17854375 15.6334655,6.44539679 15.2431641,5.86352539 C14.8528626,5.28165399 14.3623076,4.99072266 13.7714844,4.99072266 C13.0231082,4.99072266 12.3982772,5.34610647 11.8969727,6.05688477 C11.3956681,6.76766306 11.1450195,7.65477984 11.1450195,8.71826172 C11.1450195,9.60628699 11.3401673,10.339434 11.7304688,10.9177246 C12.1207702,11.4960153 12.6166962,11.7851562 13.2182617,11.7851562 Z M19.534668,12.2148438 C19.5955407,11.7851541 19.6259766,11.1424196 19.6259766,10.2866211 C19.6259766,8.58218549 19.5498868,7.3361042 19.3977051,6.54833984 C19.2455233,5.76057549 19.0029314,5.36669922 18.6699219,5.36669922 C18.4550771,5.36669922 18.2473968,5.47949106 18.046875,5.70507812 C17.8463532,5.93066519 17.7210289,6.19205581 17.6708984,6.48925781 C17.5240878,6.45703109 17.4506836,6.39257861 17.4506836,6.29589844 C17.4506836,5.93066224 17.6270327,5.55021357 17.9797363,5.15454102 C18.3324399,4.75886846 18.6717106,4.56103516 18.9975586,4.56103516 C19.3269873,4.56103516 19.5767407,4.6872546 19.7468262,4.93969727 C19.9169117,5.19213993 20.0646153,5.6567349 20.1899414,6.33349609 C20.379721,7.33968602 20.4746094,8.49983067 20.4746094,9.81396484 L20.4799805,10.1899414 L21.253418,8.68603516 L21.597168,8.02539062 L22.0966797,7.04248047 C22.3831395,6.48388393 22.5747065,6.03629726 22.6713867,5.69970703 L23.4931641,4.91552734 C23.4680988,5.18766412 23.4555664,5.42040919 23.4555664,5.61376953 C23.4555664,6.22249653 23.5791003,7.19465478 23.8261719,8.53027344 L23.890625,8.87939453 L23.9980469,9.43798828 C24.0696618,9.82112822 24.1412757,10.2346983 24.2128906,10.6787109 C24.3167323,10.4853506 24.3811848,10.3600263 24.40625,10.3027344 L24.8413086,9.40039062 L25.3676758,8.33154297 C25.8045269,7.42561396 26.0229492,6.71842702 26.0229492,6.20996094 C26.0229492,5.86620922 25.8815118,5.6048186 25.5986328,5.42578125 L26.3881836,4.56103516 C26.7534198,4.80094521 26.9360352,5.08919103 26.9360352,5.42578125 C26.9360352,5.87337463 26.5600624,6.83658115 25.8081055,8.31542969 C25.6827793,8.56250124 25.5323902,8.86327948 25.3569336,9.21777344 L25.1259766,9.69042969 L24.8896484,10.2329102 L24.578125,10.9311523 C24.5530598,10.992025 24.4957687,11.1352528 24.40625,11.3608398 L23.5791016,12.2363281 L23.5576172,12 C23.4860022,11.2480431 23.3517262,10.3582408 23.1547852,9.33056641 L23.090332,9.00830078 L22.9990234,8.53027344 C22.9309892,8.18294097 22.8862306,7.92871174 22.8647461,7.76757812 L22.7626953,7.03173828 C22.7555338,6.97802708 22.7376304,6.85270281 22.7089844,6.65576172 L21.9838867,8.09521484 L21.6884766,8.68066406 C21.1477838,9.7405652 20.7342137,10.6232061 20.4477539,11.3286133 L19.534668,12.2148438 Z M32.7967248,12.2148438 C32.8575975,11.7851541 32.8880334,11.1424196 32.8880334,10.2866211 C32.8880334,8.58218549 32.8119436,7.3361042 32.6597619,6.54833984 C32.5075801,5.76057549 32.2649881,5.36669922 31.9319787,5.36669922 C31.7171338,5.36669922 31.5094536,5.47949106 31.3089318,5.70507812 C31.10841,5.93066519 30.9830857,6.19205581 30.9329552,6.48925781 C30.7861446,6.45703109 30.7127404,6.39257861 30.7127404,6.29589844 C30.7127404,5.93066224 30.8890895,5.55021357 31.2417931,5.15454102 C31.5944967,4.75886846 31.9337674,4.56103516 32.2596154,4.56103516 C32.5890441,4.56103516 32.8387975,4.6872546 33.008883,4.93969727 C33.1789684,5.19213993 33.326672,5.6567349 33.4519982,6.33349609 C33.6417778,7.33968602 33.7366662,8.49983067 33.7366662,9.81396484 L33.7420373,10.1899414 L34.5154748,8.68603516 L34.8592248,8.02539062 L35.3587365,7.04248047 C35.6451962,6.48388393 35.8367633,6.03629726 35.9334435,5.69970703 L36.7552209,4.91552734 C36.7301556,5.18766412 36.7176232,5.42040919 36.7176232,5.61376953 C36.7176232,6.22249653 36.8411571,7.19465478 37.0882287,8.53027344 L37.1526818,8.87939453 L37.2601037,9.43798828 C37.3317186,9.82112822 37.4033325,10.2346983 37.4749474,10.6787109 C37.5787891,10.4853506 37.6432416,10.3600263 37.6683068,10.3027344 L38.1033654,9.40039062 L38.6297326,8.33154297 C39.0665837,7.42561396 39.285006,6.71842702 39.285006,6.20996094 C39.285006,5.86620922 39.1435686,5.6048186 38.8606896,5.42578125 L39.6502404,4.56103516 C40.0154766,4.80094521 40.1980919,5.08919103 40.1980919,5.42578125 C40.1980919,5.87337463 39.8221191,6.83658115 39.0701623,8.31542969 C38.9448361,8.56250124 38.794447,8.86327948 38.6189904,9.21777344 L38.3880334,9.69042969 L38.1517052,10.2329102 L37.8401818,10.9311523 C37.8151166,10.992025 37.7578255,11.1352528 37.6683068,11.3608398 L36.8411584,12.2363281 L36.819674,12 C36.748059,11.2480431 36.613783,10.3582408 36.4168419,9.33056641 L36.3523888,9.00830078 L36.2610802,8.53027344 C36.193046,8.18294097 36.1482874,7.92871174 36.1268029,7.76757812 L36.0247521,7.03173828 C36.0175906,6.97802708 35.9996871,6.85270281 35.9710412,6.65576172 L35.2459435,8.09521484 L34.9505334,8.68066406 C34.4098405,9.7405652 33.9962705,10.6232061 33.7098107,11.3286133 L32.7967248,12.2148438 Z M41.6751427,7.86425781 L40.8050255,8.70214844 C40.7190876,8.41568867 40.6761193,8.14355598 40.6761193,7.88574219 C40.6761193,6.88313301 41.0932701,6.07210596 41.9275841,5.45263672 C42.5363111,5.00146259 43.4028389,4.77587891 44.5271935,4.77587891 L46.2996544,4.77587891 C46.9656734,4.77587891 47.6460051,4.7526044 48.3406701,4.70605469 L47.9056115,5.80712891 L47.819674,6.00585938 C47.7301553,6.21712345 47.6155731,6.32275391 47.475924,6.32275391 C47.4544395,6.32275391 47.4293746,6.32096356 47.4007287,6.31738281 C47.4401169,6.13834546 47.4598107,5.99511772 47.4598107,5.88769531 C47.4598107,5.65136601 47.3353816,5.5036624 47.0865197,5.44458008 C46.8376578,5.38549775 46.2173026,5.35595703 45.2254357,5.35595703 L44.7044396,5.35595703 L44.4197716,7.95556641 L45.4671349,7.95556641 C46.0722812,7.95556641 46.6093852,7.92692086 47.078463,7.86962891 C46.6702579,8.36019125 46.2584781,8.60546875 45.8431115,8.60546875 C45.6103629,8.60546875 45.2809391,8.58756528 44.8548302,8.55175781 C44.6793736,8.54101557 44.5558397,8.53564453 44.4842248,8.53564453 L44.3553185,8.53564453 L44.3016076,9.00292969 C44.2264119,9.68327163 44.1073538,10.1666652 43.9444298,10.453125 C43.7815058,10.7395848 43.461929,11.0278306 42.9856896,11.3178711 L44.1619591,11.4091797 L44.6399865,11.4521484 C44.9765767,11.4772137 45.3794047,11.4897461 45.8484826,11.4897461 C46.6398277,11.4897461 47.2986753,11.2337265 47.8250451,10.7216797 C47.8859178,10.7897139 47.9163537,10.8541664 47.9163537,10.9150391 C47.9163537,11.0153 47.7247866,11.2211898 47.3416466,11.5327148 C46.7830501,11.9874697 46.1725419,12.2148438 45.5101037,12.2148438 C44.8977959,12.2148438 44.0169454,12.1629237 42.8675255,12.059082 L40.8641076,11.8764648 C40.7960734,11.8728841 40.5543766,11.8585613 40.1390099,11.8334961 L41.1219201,11.0922852 C41.476414,11.1531579 41.9025165,11.2068683 42.4002404,11.253418 C42.7511536,11.1173496 42.9874794,10.9239921 43.1092248,10.6733398 C43.2309702,10.4226875 43.3330199,9.91780979 43.4153771,9.15869141 L43.8396935,5.35595703 L43.6517052,5.35595703 C42.9570403,5.35595703 42.4127749,5.49828959 42.0188927,5.78295898 C41.6250106,6.06762838 41.4280724,6.46060947 41.4280724,6.96191406 C41.4280724,7.25195458 41.5104284,7.55273282 41.6751427,7.86425781 Z M56.2047776,4.77587891 C56.043644,5.59586999 55.9469653,6.14729676 55.9147386,6.43017578 L55.7482347,7.91796875 L58.745305,7.91796875 L58.7667894,7.72460938 C58.9995379,5.64419533 59.4113177,4.22982145 60.0021409,3.48144531 C60.7254518,2.56477406 61.5275271,2.10644531 62.4083909,2.10644531 C62.7378197,2.10644531 63.0439689,2.16373641 63.326848,2.27832031 L62.5319261,3.05712891 C62.2311433,2.85302632 61.9321554,2.75097656 61.6349534,2.75097656 C61.0298072,2.75097656 60.6090757,3.05085963 60.3727464,3.65063477 C60.1364171,4.2504099 59.9018817,5.60838786 59.6691331,7.72460938 L59.5885667,8.45507812 C59.4883058,9.3968146 59.4381761,10.1254857 59.4381761,10.6411133 C59.4381761,10.9454768 59.5688714,11.0976562 59.8302659,11.0976562 C60.0236263,11.0976562 60.2635327,11.0153003 60.5499925,10.8505859 C60.5643155,10.9150394 60.5714769,10.9597981 60.5714769,10.9848633 C60.5714769,11.0922857 60.4765885,11.1889644 60.2868089,11.2749023 L59.9752855,11.4199219 L58.3961839,12.1396484 C58.3961839,11.4772102 58.4821205,10.3510822 58.6539964,8.76123047 L58.6754808,8.56787109 L55.6784105,8.56787109 L55.6246995,9.05664062 L55.5548753,9.65283203 C55.4940026,10.1612981 55.3838963,10.5283192 55.224553,10.7539062 C55.0652098,10.9794933 54.7599557,11.199706 54.3087816,11.4145508 L55.5763597,11.4951172 L54.9318284,12.1181641 L52.6061448,12 L53.2936448,11.3339844 L53.8790941,11.3984375 C54.1619731,11.2158194 54.3571209,10.9875502 54.4645433,10.713623 C54.5719657,10.4396959 54.6650637,9.93034227 54.7438401,9.18554688 L55.1574144,5.42578125 L54.9909105,5.42578125 C53.5013197,5.42578125 52.7565355,5.91812659 52.7565355,6.90283203 C52.7565355,7.21077628 52.8406818,7.52050625 53.0089769,7.83203125 L52.1334886,8.66992188 C52.0511314,8.3906236 52.0099534,8.11311987 52.0099534,7.83740234 C52.0099534,6.9135696 52.3537,6.17236607 53.0412034,5.61376953 C53.7287069,5.05517299 54.6417837,4.77587891 55.7804612,4.77587891 L56.2047776,4.77587891 Z M62.413762,7.86425781 L61.5436448,8.70214844 C61.4577069,8.41568867 61.4147386,8.14355598 61.4147386,7.88574219 C61.4147386,6.88313301 61.8318894,6.07210596 62.6662034,5.45263672 C63.2749304,5.00146259 64.1414582,4.77587891 65.2658128,4.77587891 L67.0382737,4.77587891 C67.7042927,4.77587891 68.3846244,4.7526044 69.0792894,4.70605469 L68.6442308,5.80712891 L68.5582933,6.00585938 C68.4687746,6.21712345 68.3541924,6.32275391 68.2145433,6.32275391 C68.1930588,6.32275391 68.1679939,6.32096356 68.139348,6.31738281 C68.1787362,6.13834546 68.19843,5.99511772 68.19843,5.88769531 C68.19843,5.65136601 68.0740009,5.5036624 67.825139,5.44458008 C67.5762771,5.38549775 66.9559219,5.35595703 65.964055,5.35595703 L65.4430589,5.35595703 L65.1583909,7.95556641 L66.2057542,7.95556641 C66.8109005,7.95556641 67.3480045,7.92692086 67.8170823,7.86962891 C67.4088772,8.36019125 66.9970974,8.60546875 66.5817308,8.60546875 C66.3489822,8.60546875 66.0195584,8.58756528 65.5934495,8.55175781 C65.4179929,8.54101557 65.294459,8.53564453 65.2228441,8.53564453 L65.0939378,8.53564453 L65.0402269,9.00292969 C64.9650312,9.68327163 64.8459731,10.1666652 64.6830491,10.453125 C64.5201251,10.7395848 64.2005483,11.0278306 63.7243089,11.3178711 L64.9005784,11.4091797 L65.3786058,11.4521484 C65.715196,11.4772137 66.118024,11.4897461 66.5871019,11.4897461 C67.378447,11.4897461 68.0372945,11.2337265 68.5636644,10.7216797 C68.6245371,10.7897139 68.654973,10.8541664 68.654973,10.9150391 C68.654973,11.0153 68.4634059,11.2211898 68.0802659,11.5327148 C67.5216694,11.9874697 66.9111612,12.2148438 66.248723,12.2148438 C65.6364152,12.2148438 64.7555646,12.1629237 63.6061448,12.059082 L61.6027269,11.8764648 C61.5346927,11.8728841 61.2929959,11.8585613 60.8776292,11.8334961 L61.8605394,11.0922852 C62.2150333,11.1531579 62.6411358,11.2068683 63.1388597,11.253418 C63.4897729,11.1173496 63.7260987,10.9239921 63.8478441,10.6733398 C63.9695895,10.4226875 64.0716392,9.91780979 64.1539964,9.15869141 L64.5783128,5.35595703 L64.3903245,5.35595703 C63.6956596,5.35595703 63.1513942,5.49828959 62.757512,5.78295898 C62.3636298,6.06762838 62.1666917,6.46060947 62.1666917,6.96191406 C62.1666917,7.25195458 62.2490477,7.55273282 62.413762,7.86425781 Z M68.714055,11.8603516 L69.6163987,11.1567383 C69.8921163,11.2068687 70.1248613,11.2373046 70.3146409,11.2480469 C70.7264268,11.090494 71.016463,10.8174661 71.1847581,10.4289551 C71.3530532,10.040444 71.4371995,9.45052479 71.4371995,8.65917969 L71.4586839,7.82666016 C71.4586839,6.75601678 71.8239146,5.91813454 72.554387,5.31298828 C73.163114,4.81168369 73.8058485,4.56103516 74.4826097,4.56103516 C74.7726502,4.56103516 75.0698477,4.62727798 75.3742112,4.75976562 L74.5792894,5.53857422 C74.2534414,5.32731014 73.931179,5.22167969 73.6124925,5.22167969 C72.8139859,5.22167969 72.4147386,5.87515623 72.4147386,7.18212891 L72.3932542,7.92333984 C72.3932542,8.93669126 72.2965755,9.67878996 72.1032151,10.1496582 C71.9098548,10.6205264 71.539253,11.0099268 70.9913987,11.3178711 L72.1032151,11.4091797 L72.5973558,11.4467773 L73.1935472,11.484375 C73.3511,11.4951172 73.5283444,11.5004883 73.7252855,11.5004883 C74.6133107,11.5004883 75.3061749,11.2426784 75.8038987,10.7270508 C75.8611907,10.7986657 75.8898362,10.8505858 75.8898362,10.8828125 C75.8898362,11.0009772 75.717963,11.2032863 75.3742112,11.4897461 C74.7869687,11.9731469 74.1567667,12.2148438 73.4835862,12.2148438 C73.2078687,12.2148438 72.8694932,12.200521 72.4684495,12.171875 L70.8732347,12.0537109 C70.0425014,11.9928382 69.322782,11.9283858 68.714055,11.8603516 Z M78.682805,11.4145508 L80.1007737,11.4951172 L79.4562425,12.1181641 L76.9801683,12 L77.6730394,11.3339844 L78.2531175,11.3984375 C78.6899686,11.12272 78.9585206,10.5587608 79.0587816,9.70654297 L79.1178636,9.18554688 L79.5744066,5.11425781 C77.9451666,5.42220206 77.1305589,6.03629097 77.1305589,6.95654297 C77.1305589,7.32535992 77.2075438,7.65299336 77.3615159,7.93945312 L76.4967698,8.70214844 C76.4215741,8.42643091 76.3839769,8.14713683 76.3839769,7.86425781 C76.3839769,6.89029461 76.7975469,6.09627586 77.6246995,5.48217773 C78.4518521,4.86807961 79.5224794,4.56103516 80.8366136,4.56103516 C82.5983411,4.56103516 83.4791917,5.13752679 83.4791917,6.29052734 C83.4791917,7.02099975 83.1515583,7.64583074 82.4962816,8.16503906 C81.8410048,8.68424739 81.010284,8.97428355 80.0040941,9.03515625 C79.9181561,9.86947032 79.8053643,10.4137357 79.6657151,10.6679688 C79.526066,10.9222018 79.1984326,11.17106 78.682805,11.4145508 Z M80.4445237,5.04980469 L80.0631761,8.4765625 C80.2636979,8.51236997 80.4391519,8.53027344 80.5895433,8.53027344 C81.9609694,8.53027344 82.6466722,7.9305073 82.6466722,6.73095703 C82.6466722,5.6101832 81.91263,5.04980469 80.4445237,5.04980469 Z" id="HOW-WE-HELP"></path>
        </g>
    </g>
</svg>