<svg xmlns="http://www.w3.org/2000/svg" xmlns:xlink="http://www.w3.org/1999/xlink" viewBox="0 0 9.45 14.58"><defs><style>.cls-1{fill:url(#linear-gradient);}.cls-2{fill:url(#linear-gradient-2);}.cls-3{fill:url(#linear-gradient-3);}.cls-4{fill:url(#linear-gradient-4);}.cls-5,.cls-6,.cls-7{fill:none;stroke:#a2fbff;stroke-miterlimit:10;}.cls-6{stroke-width:3px;}.cls-7{stroke-width:2px;}</style><linearGradient id="linear-gradient" x1="7.11" y1="4.58" x2="7.22" y2="4.58" gradientUnits="userSpaceOnUse"><stop offset="0" stop-color="#fff"/><stop offset="1"/></linearGradient><linearGradient id="linear-gradient-2" x1="7.11" y1="4.57" x2="7.22" y2="4.57" xlink:href="#linear-gradient"/><linearGradient id="linear-gradient-3" x1="2.59" y1="7.29" x2="2.59" y2="7.29" xlink:href="#linear-gradient"/><linearGradient id="linear-gradient-4" x1="2.55" y1="7.27" x2="2.56" y2="7.27" xlink:href="#linear-gradient"/></defs><title>Asset 3</title><g id="Layer_2" data-name="Layer 2"><g id="Layer_1-2" data-name="Layer 1"><path class="cls-1" d="M7.22,4.46l-.11.24s0,0,0,0l.08-.17Z"/><path class="cls-2" d="M7.2,4.49l-.08.17A.38.38,0,0,1,7.2,4.49Z"/><path class="cls-3" d="M2.59,7.29Z"/><path class="cls-4" d="M2.56,7.28h0Z"/><path class="cls-5" d="M7.23,4.4h.12a1.09,1.09,0,0,0-.21.72v.1"/><line class="cls-5" x1="7.36" y1="6.87" x2="7.38" y2="6.82"/><line class="cls-5" x1="6.67" y1="9.24" x2="6.67" y2="9.23"/><line class="cls-5" x1="5.97" y1="11.63" x2="5.99" y2="11.55"/><line class="cls-5" x1="5.18" y1="14.31" x2="5.96" y2="11.63"/><polyline class="cls-6" points="3.3 5.91 2.59 7.02 2.46 7.23 2.08 7.82 1.82 8.23 1.35 8.98 1.34 8.98 1.3 9.04"/><line class="cls-7" x1="3.93" y1="4.93" x2="3.3" y2="5.91"/><line class="cls-6" x1="4" y1="4.82" x2="3.93" y2="4.93"/><polyline class="cls-6" points="6.56 0.8 6.53 0.85 6.45 0.97 4.27 4.4 4 4.82"/><polyline class="cls-5" points="1.85 14.34 1.89 14.28 4.17 10.18 4.27 9.98"/><line class="cls-7" x1="2.05" y1="11.67" x2="2.05" y2="11.67"/><path class="cls-7" d="M7.68,9.24v0l-.08-.61,0-.17L7.36,6.87v0l-.2-1.55V5.12l-.06-.41L7,4.4H7L6.56.86"/><path class="cls-7" d="M6,11.45H6"/><line class="cls-5" x1="7.38" y1="6.82" x2="7.35" y2="6.82"/><path class="cls-5" d="M6.55,9.23H6.2"/><path class="cls-5" d="M4,4.71l0,.11H4a7.85,7.85,0,0,0,.55.89c.13.18.27.36.41.53l.11.12A10.65,10.65,0,0,0,6.91,8l.1.07.43.28.13.09c.49.31.81.5.81.62s-.21.14-.71.16h-1"/><path class="cls-5" d="M4.21,4.4l0,0c-.08-.06-.26-.2-.32-.13s0,.18.1.48"/><path class="cls-7" d="M4.09,4.4H7.23a.77.77,0,0,0-.16.31A1.24,1.24,0,0,0,7,5.18v0"/><polyline class="cls-5" points="4.14 10.05 4.17 10.18 5.06 14.29 5.07 14.34"/><polyline class="cls-5" points="7.24 6.87 7.26 6.82 7.26 6.82"/><polyline class="cls-5" points="5.06 14.31 5.06 14.29 5.13 14.07 5.9 11.45 6.55 9.23 6.55 9.23 6.55 9.23"/><polyline class="cls-6" points="3.16 5.94 2.6 6.82 2.37 7.18 1.87 7.97 1.54 8.48 1.33 8.81 1.27 8.92"/><line class="cls-7" x1="3.88" y1="4.82" x2="3.16" y2="5.94"/><line class="cls-6" x1="3.95" y1="4.71" x2="3.88" y2="4.82"/><line class="cls-5" x1="3.95" y1="4.71" x2="3.95" y2="4.71"/><polyline class="cls-6" points="6.44 0.8 6.41 0.85 4.17 4.36 4.15 4.4 3.95 4.71"/><polyline class="cls-5" points="2.33 9.22 2.32 9.31 2.05 11.64 2.05 11.67 1.73 14.34"/><line class="cls-5" x1="2.61" y1="6.83" x2="2.59" y2="7.02"/><polyline class="cls-5" points="1.73 14.34 1.92 14 4.12 10.04 4.15 9.98"/><path class="cls-7" d="M6.44.86V1L6.91,4.4,7,5.18v.15l.09.73.11.76v0l0,.28h0l.16,1.19,0,.18.1.69v0"/><path class="cls-7" d="M4.09,4.4a1.15,1.15,0,0,0-.24-.17c-.13-.06-.24,0,0,.59h0l.05.11a6.83,6.83,0,0,0,.44.8,6.9,6.9,0,0,0,.43.59,1.13,1.13,0,0,0,.1.13,8.84,8.84,0,0,0,2,1.72l.1.06.5.3.13.08a7.88,7.88,0,0,1,.79.45c.18.14,0,.18-.7.18H6.55"/><line class="cls-7" x1="6.55" y1="9.23" x2="6.2" y2="9.23"/><path class="cls-5" d="M7.09,6.07a.31.31,0,0,1,0,.1"/><path class="cls-5" d="M2.66,6.82h0"/><line class="cls-7" x1="5.96" y1="11.63" x2="5.97" y2="11.63"/><polyline class="cls-5" points="5.99 11.55 6.02 11.44 6.02 11.44 6.67 9.24 6.67 9.24"/><polyline class="cls-5" points="4.27 9.98 5.13 14.07 5.18 14.31"/><polyline class="cls-5" points="2.48 9.23 2.47 9.3 2.47 9.32 2.2 11.6 2.2 11.63 1.92 14 1.89 14.28"/><path class="cls-7" d="M2.48,9.32H2.32c-.57,0-.87-.16-1-.32h0a.25.25,0,0,1,0-.17.78.78,0,0,1,.21-.33l.28-.25a6.3,6.3,0,0,1,.69-.47C3.17,7.34,4,6.89,4.9,6.45l.17-.09L5.79,6l.87-.45L7,5.33l.11-.06c.74-.42,1.16-.74.88-.86a2.6,2.6,0,0,0-1,0h-.1"/><path class="cls-5" d="M7.12,4.66v0"/><path class="cls-5" d="M7.22,4.44l0,0"/><path class="cls-5" d="M2.51,9.23H2.33L2,9.18A1.52,1.52,0,0,1,1.35,9h0l-.07-.06c-.2-.23.07-.56.6-1l.21-.15.45-.28C3.18,7.15,4,6.72,4.8,6.32L5,6.24l.94-.48.52-.26.14-.07L7,5.18H7l.11-.06h0c.58-.33.94-.58.89-.71s-.32-.13-.92-.07"/><path class="cls-5" d="M7.13,4.44H7.05"/><path class="cls-5" d="M7.22,4.46l0,0a.38.38,0,0,0-.08.17s0,0,0,0"/><polyline class="cls-6" points="2.41 9.3 2.47 9.3 2.96 9.3"/></g></g></svg>